<svg width="24" height="24" viewBox="0 0 24 24" fill="none" xmlns="http://www.w3.org/2000/svg">
<path d="M20.595 10.7728C20.9734 9.95722 21.1188 9.05293 21.0153 8.15986C20.9118 7.2668 20.5634 6.41975 20.0085 5.71236C19.4537 5.00498 18.714 4.4648 17.8713 4.15157C17.0286 3.83833 16.1156 3.76423 15.2334 3.93745C14.7154 3.20388 14.0047 2.62768 13.1799 2.27242C12.3551 1.91715 11.4482 1.79663 10.5592 1.92416C9.67022 2.05168 8.83374 2.42229 8.14206 2.99509C7.45037 3.5679 6.93036 4.32064 6.63939 5.17027C5.74504 5.25163 4.89055 5.57845 4.17018 6.11467C3.4498 6.65089 2.89155 7.37567 2.55699 8.20906C2.22243 9.04245 2.12457 9.95206 2.27421 10.8375C2.42385 11.723 2.81518 12.55 3.40501 13.2271C3.10644 13.8718 2.95237 14.5739 2.95358 15.2843C2.9548 15.9947 3.11127 16.6963 3.41204 17.3399C3.71282 17.9835 4.15063 18.5536 4.69483 19.0103C5.23903 19.467 5.87646 19.7992 6.56251 19.9837C6.97779 20.0969 7.40616 20.1549 7.83657 20.1562C8.14918 20.155 8.46095 20.1237 8.76751 20.0625C9.28552 20.7958 9.99599 21.3719 10.8206 21.7271C11.6452 22.0823 12.5518 22.2029 13.4406 22.0756C14.3294 21.9483 15.1657 21.578 15.8575 21.0056C16.5492 20.4331 17.0693 19.6808 17.3606 18.8315C18.255 18.7502 19.1095 18.4233 19.8298 17.8871C20.5502 17.3509 21.1085 16.6261 21.443 15.7927C21.7776 14.9593 21.8755 14.0497 21.7258 13.1642C21.5762 12.2788 21.1848 11.4518 20.595 10.7746V10.7728ZM17.2388 4.74089C17.7979 4.89065 18.3193 5.15642 18.769 5.52092C19.2187 5.88543 19.5867 6.3405 19.8489 6.85655C20.1112 7.3726 20.2619 7.93808 20.2913 8.51621C20.3207 9.09433 20.228 9.67217 20.0194 10.2121C19.8136 10.0416 19.5941 9.88827 19.3631 9.7537L15.1875 7.34527C15.1305 7.31235 15.0658 7.29503 15 7.29503C14.9342 7.29503 14.8695 7.31235 14.8125 7.34527L10.125 10.0518V7.45308L14.1094 5.1562C14.5776 4.88346 15.0953 4.70632 15.6325 4.63503C16.1696 4.56374 16.7156 4.59972 17.2388 4.74089ZM13.875 13.0846L12 14.1665L10.125 13.0846V10.919L12 9.83714L13.875 10.919V13.0846ZM7.12501 6.74995C7.12504 5.89658 7.38973 5.06423 7.88261 4.36759C8.3755 3.67095 9.07231 3.14432 9.87702 2.86028C10.6817 2.57624 11.5547 2.54877 12.3757 2.78165C13.1967 3.01453 13.9252 3.49631 14.4609 4.16058C14.2099 4.25356 13.9668 4.36707 13.7344 4.49995L9.56251 6.91214C9.50556 6.94502 9.45826 6.9923 9.42535 7.04923C9.39244 7.10617 9.37508 7.17076 9.37501 7.23652V12.6496L7.12501 11.3503V6.74995ZM3.50626 7.96214C3.81276 7.42757 4.23584 6.96899 4.74404 6.6205C5.25224 6.27202 5.83247 6.04261 6.44157 5.94933C6.3974 6.21392 6.37513 6.4817 6.37501 6.74995V11.5668C6.37508 11.6326 6.39244 11.6972 6.42535 11.7541C6.45826 11.811 6.50556 11.8583 6.56251 11.8912L11.25 14.5978L9.00001 15.8971L5.01564 13.5937C4.06916 13.0466 3.37856 12.1462 3.09555 11.0903C2.81253 10.0343 2.96026 8.90923 3.50626 7.96214ZM6.76126 19.259C6.20209 19.1093 5.68071 18.8435 5.231 18.479C4.7813 18.1145 4.41335 17.6594 4.15108 17.1434C3.88881 16.6273 3.73809 16.0618 3.70873 15.4837C3.67936 14.9056 3.77201 14.3277 3.98064 13.7878C4.18645 13.9583 4.40594 14.1116 4.63689 14.2462L8.81251 16.6546C8.86952 16.6876 8.93419 16.7049 9.00001 16.7049C9.06584 16.7049 9.1305 16.6876 9.18751 16.6546L13.875 13.9481V16.5468L9.89064 18.8437C9.42241 19.1164 8.90472 19.2936 8.36756 19.3649C7.83039 19.4362 7.28442 19.4002 6.76126 19.259ZM16.875 17.25C16.875 18.1035 16.6103 18.936 16.1173 19.6327C15.6243 20.3294 14.9273 20.8561 14.1224 21.1401C13.3175 21.424 12.4443 21.4513 11.6233 21.2182C10.8022 20.9851 10.0737 20.503 9.53814 19.8384C9.78957 19.7459 10.0329 19.6327 10.2656 19.5L14.4375 17.0878C14.4945 17.0549 14.5418 17.0076 14.5747 16.9507C14.6076 16.8937 14.6249 16.8292 14.625 16.7634V11.3503L16.875 12.6496V17.25ZM20.4938 16.0378C20.1873 16.5723 19.7642 17.0309 19.256 17.3794C18.7478 17.7279 18.1676 17.9573 17.5584 18.0506C17.6026 17.786 17.6249 17.5182 17.625 17.25V12.4331C17.6249 12.3673 17.6076 12.3027 17.5747 12.2458C17.5418 12.1889 17.4945 12.1416 17.4375 12.1087L12.75 9.40214L15 8.10277L18.9844 10.4062C19.9309 10.9533 20.6215 11.8537 20.9045 12.9096C21.1875 13.9656 21.0398 15.0907 20.4938 16.0378Z" fill="black"/>
</svg>
