<svg width="24" height="24" viewBox="0 0 24 24" fill="none" xmlns="http://www.w3.org/2000/svg">
<path fill-rule="evenodd" clip-rule="evenodd" d="M16.9698 6.97007C17.1105 6.82962 17.3011 6.75073 17.4998 6.75073C17.6986 6.75073 17.8892 6.82962 18.0298 6.97007L18.0318 6.97207L18.0348 6.97407L18.0418 6.98107L18.0618 7.00107L18.1238 7.07007C18.1738 7.12707 18.2438 7.20807 18.3248 7.31107C19.2488 8.51204 19.7498 9.9848 19.7498 11.5001C19.7498 13.0153 19.2488 14.4881 18.3248 15.6891C18.2411 15.7959 18.153 15.8994 18.0608 15.9991L18.0408 16.0191L18.0348 16.0261L18.0318 16.0281L18.0308 16.0291L17.5208 15.5211L18.0308 16.0311C17.8901 16.1718 17.6993 16.2508 17.5003 16.2508C17.3014 16.2508 17.1105 16.1718 16.9698 16.0311C16.8291 15.8904 16.7501 15.6995 16.7501 15.5006C16.7501 15.3016 16.8291 15.1108 16.9698 14.9701L16.9688 14.9711L16.9668 14.9721L16.9718 14.9671L17.0048 14.9311C17.0368 14.8964 17.0832 14.8407 17.1438 14.7641C17.7765 13.9382 18.1556 12.9464 18.2351 11.9091C18.3147 10.8718 18.0912 9.83373 17.5918 8.92107C17.4615 8.68088 17.3116 8.45178 17.1438 8.23607C17.0895 8.1659 17.0322 8.09816 16.9718 8.03307L16.9668 8.02807C16.8274 7.88713 16.7494 7.69671 16.75 7.49845C16.7506 7.30019 16.8296 7.11022 16.9698 6.97007Z" fill="black"/>
<path fill-rule="evenodd" clip-rule="evenodd" d="M19.97 3.96998C20.1106 3.82953 20.3012 3.75064 20.5 3.75064C20.6988 3.75064 20.8894 3.82953 21.03 3.96998L21.033 3.97198L21.036 3.97498L21.045 3.98498C21.0884 4.02774 21.1297 4.07245 21.169 4.11898C21.248 4.20798 21.357 4.33698 21.485 4.50398C21.742 4.83698 22.079 5.32698 22.414 5.96398C23.084 7.23798 23.75 9.10698 23.75 11.5C23.75 13.893 23.084 15.762 22.414 17.037C22.1471 17.5496 21.8363 18.0381 21.485 18.497C21.3468 18.6767 21.2 18.8495 21.045 19.015L21.035 19.025L21.033 19.028L21.031 19.029L20.5 18.5L21.03 19.03C20.8886 19.1667 20.6992 19.2424 20.5025 19.2407C20.3059 19.2391 20.1178 19.1603 19.9786 19.0213C19.8395 18.8824 19.7605 18.6943 19.7587 18.4976C19.7569 18.301 19.8324 18.1115 19.969 17.97L19.983 17.956L20.046 17.886C20.1053 17.8207 20.1887 17.7193 20.296 17.582C20.508 17.306 20.796 16.889 21.086 16.338C21.666 15.238 22.25 13.607 22.25 11.5C22.25 9.39298 21.666 7.76198 21.086 6.66198C20.8583 6.22572 20.594 5.80956 20.296 5.41798C20.1968 5.28913 20.0924 5.16436 19.983 5.04398L19.969 5.02998C19.8285 4.88936 19.7497 4.69873 19.7497 4.49998C19.7497 4.30123 19.8295 4.11061 19.97 3.96998ZM12.037 3.39598C13.2 2.62898 14.75 3.46398 14.75 4.85698V19.143C14.75 20.537 13.2 21.371 12.037 20.604L6.037 16.649C5.99641 16.6219 5.94879 16.6073 5.9 16.607H3C2.27065 16.607 1.57118 16.3173 1.05546 15.8015C0.539731 15.2858 0.25 14.5863 0.25 13.857V10.143C0.25 9.78185 0.321131 9.42425 0.459331 9.0906C0.597532 8.75696 0.800095 8.4538 1.05546 8.19844C1.31082 7.94308 1.61398 7.74051 1.94762 7.60231C2.28127 7.46411 2.63886 7.39298 3 7.39298H5.9C5.94903 7.39314 5.99702 7.37889 6.038 7.35198L12.037 3.39598Z" fill="black"/>
</svg>
